<mxfile host="app.diagrams.net" modified="2024-04-01T00:12:44.314Z" agent="Mozilla/5.0 (Windows NT 10.0; Win64; x64) AppleWebKit/537.36 (KHTML, like Gecko) Chrome/123.0.0.0 Safari/537.36" etag="DuqC8zMfFZqkzyECSo4N" version="24.2.0" type="device">
  <diagram name="Page-1" id="S2NPxjeuEXTFxcTej7HJ">
    <mxGraphModel dx="2404" dy="730" grid="1" gridSize="10" guides="1" tooltips="1" connect="1" arrows="1" fold="1" page="1" pageScale="1" pageWidth="827" pageHeight="1169" math="0" shadow="0">
      <root>
        <mxCell id="0" />
        <mxCell id="1" parent="0" />
        <mxCell id="eLW_RgLDTBZseyhy0_yq-1" value="Lease" style="swimlane;fontStyle=1;align=center;verticalAlign=top;childLayout=stackLayout;horizontal=1;startSize=26;horizontalStack=0;resizeParent=1;resizeParentMax=0;resizeLast=0;collapsible=1;marginBottom=0;whiteSpace=wrap;html=1;" vertex="1" parent="1">
          <mxGeometry x="130" y="30" width="230" height="200" as="geometry" />
        </mxCell>
        <mxCell id="eLW_RgLDTBZseyhy0_yq-2" value="-id:Integer&lt;div&gt;-propertyId:Integer&lt;/div&gt;&lt;div&gt;-tenantId:Integer&lt;/div&gt;&lt;div&gt;-startDate:LocalDate&lt;/div&gt;&lt;div&gt;-endate:LocalDate&lt;/div&gt;&lt;div&gt;-rentAmount:Integer&lt;/div&gt;" style="text;strokeColor=none;fillColor=none;align=left;verticalAlign=top;spacingLeft=4;spacingRight=4;overflow=hidden;rotatable=0;points=[[0,0.5],[1,0.5]];portConstraint=eastwest;whiteSpace=wrap;html=1;" vertex="1" parent="eLW_RgLDTBZseyhy0_yq-1">
          <mxGeometry y="26" width="230" height="94" as="geometry" />
        </mxCell>
        <mxCell id="eLW_RgLDTBZseyhy0_yq-3" value="" style="line;strokeWidth=1;fillColor=none;align=left;verticalAlign=middle;spacingTop=-1;spacingLeft=3;spacingRight=3;rotatable=0;labelPosition=right;points=[];portConstraint=eastwest;strokeColor=inherit;" vertex="1" parent="eLW_RgLDTBZseyhy0_yq-1">
          <mxGeometry y="120" width="230" height="8" as="geometry" />
        </mxCell>
        <mxCell id="eLW_RgLDTBZseyhy0_yq-4" value="+ CRUD&lt;div&gt;+getByID():Lease&lt;/div&gt;&lt;div&gt;+expiredLeaseList():List&amp;lt;Lease&amp;gt;&lt;/div&gt;&lt;div&gt;+&lt;span style=&quot;background-color: initial;&quot;&gt;expiredLease():void&lt;/span&gt;&lt;/div&gt;&lt;div&gt;&lt;span style=&quot;background-color: initial;&quot;&gt;&lt;br&gt;&lt;/span&gt;&lt;/div&gt;" style="text;strokeColor=none;fillColor=none;align=left;verticalAlign=top;spacingLeft=4;spacingRight=4;overflow=hidden;rotatable=0;points=[[0,0.5],[1,0.5]];portConstraint=eastwest;whiteSpace=wrap;html=1;" vertex="1" parent="eLW_RgLDTBZseyhy0_yq-1">
          <mxGeometry y="128" width="230" height="72" as="geometry" />
        </mxCell>
        <mxCell id="eLW_RgLDTBZseyhy0_yq-5" value="Inovice" style="swimlane;fontStyle=1;align=center;verticalAlign=top;childLayout=stackLayout;horizontal=1;startSize=26;horizontalStack=0;resizeParent=1;resizeParentMax=0;resizeLast=0;collapsible=1;marginBottom=0;whiteSpace=wrap;html=1;" vertex="1" parent="1">
          <mxGeometry x="-290" y="20" width="410" height="260" as="geometry" />
        </mxCell>
        <mxCell id="eLW_RgLDTBZseyhy0_yq-6" value="-id:Integer&lt;div&gt;-leaseId:Integer&lt;/div&gt;&lt;div&gt;-tenantId:Integer&lt;/div&gt;&lt;div&gt;-issueDate:LocalDate&lt;/div&gt;&lt;div&gt;-status:String&lt;/div&gt;&lt;div&gt;-price:Integer&lt;/div&gt;" style="text;strokeColor=none;fillColor=none;align=left;verticalAlign=top;spacingLeft=4;spacingRight=4;overflow=hidden;rotatable=0;points=[[0,0.5],[1,0.5]];portConstraint=eastwest;whiteSpace=wrap;html=1;" vertex="1" parent="eLW_RgLDTBZseyhy0_yq-5">
          <mxGeometry y="26" width="410" height="94" as="geometry" />
        </mxCell>
        <mxCell id="eLW_RgLDTBZseyhy0_yq-7" value="" style="line;strokeWidth=1;fillColor=none;align=left;verticalAlign=middle;spacingTop=-1;spacingLeft=3;spacingRight=3;rotatable=0;labelPosition=right;points=[];portConstraint=eastwest;strokeColor=inherit;" vertex="1" parent="eLW_RgLDTBZseyhy0_yq-5">
          <mxGeometry y="120" width="410" height="8" as="geometry" />
        </mxCell>
        <mxCell id="eLW_RgLDTBZseyhy0_yq-8" value="+ CRUD&lt;div&gt;+getStatus():&lt;span style=&quot;background-color: initial;&quot;&gt;List&amp;lt;Inovice&amp;gt;&lt;/span&gt;&lt;/div&gt;&lt;div&gt;+overdue():List&amp;lt;Inovice&amp;gt;&lt;/div&gt;&lt;div&gt;+&lt;span style=&quot;background-color: initial;&quot;&gt;calculateTotalRentDebt(String status):Map&amp;lt;String,String&amp;gt;&lt;/span&gt;&lt;/div&gt;&lt;div&gt;&lt;span style=&quot;background-color: initial;&quot;&gt;+changeStatusPAY(Integer id):void&lt;/span&gt;&lt;/div&gt;&lt;div&gt;&lt;span style=&quot;background-color: initial;&quot;&gt;+&lt;/span&gt;&lt;span style=&quot;background-color: initial;&quot;&gt;changePARTIALLY_PAY&lt;/span&gt;&lt;span style=&quot;background-color: initial;&quot;&gt;(Integer id):void&lt;/span&gt;&lt;/div&gt;&lt;div&gt;&lt;span style=&quot;background-color: initial;&quot;&gt;+calculateTotalRevenueByStatus(LocalDate startDate, LocalDate endDate, String status):double&lt;/span&gt;&lt;/div&gt;&lt;div&gt;&lt;span style=&quot;background-color: initial;&quot;&gt;&lt;br&gt;&lt;/span&gt;&lt;/div&gt;" style="text;strokeColor=none;fillColor=none;align=left;verticalAlign=top;spacingLeft=4;spacingRight=4;overflow=hidden;rotatable=0;points=[[0,0.5],[1,0.5]];portConstraint=eastwest;whiteSpace=wrap;html=1;" vertex="1" parent="eLW_RgLDTBZseyhy0_yq-5">
          <mxGeometry y="128" width="410" height="132" as="geometry" />
        </mxCell>
        <mxCell id="eLW_RgLDTBZseyhy0_yq-10" value="MaintenanceRequest" style="swimlane;fontStyle=1;align=center;verticalAlign=top;childLayout=stackLayout;horizontal=1;startSize=26;horizontalStack=0;resizeParent=1;resizeParentMax=0;resizeLast=0;collapsible=1;marginBottom=0;whiteSpace=wrap;html=1;" vertex="1" parent="1">
          <mxGeometry x="380" y="100" width="410" height="210" as="geometry" />
        </mxCell>
        <mxCell id="eLW_RgLDTBZseyhy0_yq-11" value="-id:Integer&lt;div&gt;-propertyId:Integer&lt;/div&gt;&lt;div&gt;&lt;span style=&quot;background-color: initial;&quot;&gt;-tenantId:Integer&lt;/span&gt;&lt;br&gt;&lt;/div&gt;&lt;div&gt;-requestDate:LocalDate&lt;/div&gt;&lt;div&gt;-status:String&lt;/div&gt;&lt;div&gt;-description:String&lt;/div&gt;" style="text;strokeColor=none;fillColor=none;align=left;verticalAlign=top;spacingLeft=4;spacingRight=4;overflow=hidden;rotatable=0;points=[[0,0.5],[1,0.5]];portConstraint=eastwest;whiteSpace=wrap;html=1;" vertex="1" parent="eLW_RgLDTBZseyhy0_yq-10">
          <mxGeometry y="26" width="410" height="94" as="geometry" />
        </mxCell>
        <mxCell id="eLW_RgLDTBZseyhy0_yq-12" value="" style="line;strokeWidth=1;fillColor=none;align=left;verticalAlign=middle;spacingTop=-1;spacingLeft=3;spacingRight=3;rotatable=0;labelPosition=right;points=[];portConstraint=eastwest;strokeColor=inherit;" vertex="1" parent="eLW_RgLDTBZseyhy0_yq-10">
          <mxGeometry y="120" width="410" height="8" as="geometry" />
        </mxCell>
        <mxCell id="eLW_RgLDTBZseyhy0_yq-13" value="+ CRUD&lt;div&gt;+getStatus():&lt;span style=&quot;background-color: initial;&quot;&gt;List&amp;lt;Inovice&amp;gt;&lt;/span&gt;&lt;/div&gt;&lt;div&gt;&lt;span style=&quot;background-color: initial;&quot;&gt;+changeStatusRequest&lt;/span&gt;&lt;span style=&quot;background-color: initial;&quot;&gt;(neger id):void&lt;/span&gt;&lt;br&gt;&lt;/div&gt;&lt;div&gt;&lt;span style=&quot;background-color: initial;&quot;&gt;+giveAllRequest():List&amp;lt;&lt;/span&gt;&lt;span style=&quot;text-align: center; background-color: initial;&quot;&gt;MaintenanceRequest&lt;/span&gt;&lt;span style=&quot;font-weight: 700; text-align: center; background-color: initial;&quot;&gt;&amp;gt;&lt;/span&gt;&lt;/div&gt;&lt;div&gt;&lt;br&gt;&lt;/div&gt;" style="text;strokeColor=none;fillColor=none;align=left;verticalAlign=top;spacingLeft=4;spacingRight=4;overflow=hidden;rotatable=0;points=[[0,0.5],[1,0.5]];portConstraint=eastwest;whiteSpace=wrap;html=1;" vertex="1" parent="eLW_RgLDTBZseyhy0_yq-10">
          <mxGeometry y="128" width="410" height="82" as="geometry" />
        </mxCell>
        <mxCell id="eLW_RgLDTBZseyhy0_yq-14" value="Property" style="swimlane;fontStyle=1;align=center;verticalAlign=top;childLayout=stackLayout;horizontal=1;startSize=26;horizontalStack=0;resizeParent=1;resizeParentMax=0;resizeLast=0;collapsible=1;marginBottom=0;whiteSpace=wrap;html=1;" vertex="1" parent="1">
          <mxGeometry x="230" y="355" width="410" height="290" as="geometry" />
        </mxCell>
        <mxCell id="eLW_RgLDTBZseyhy0_yq-15" value="-id:Integer&lt;div&gt;&lt;span style=&quot;background-color: initial;&quot;&gt;-adress:String&lt;/span&gt;&lt;br&gt;&lt;/div&gt;&lt;div&gt;-bedroom:Integer&lt;/div&gt;&lt;div&gt;&lt;span style=&quot;background-color: initial;&quot;&gt;-bathroom:Integer&lt;/span&gt;&lt;br&gt;&lt;/div&gt;&lt;div&gt;-area:Integer&lt;span style=&quot;background-color: initial;&quot;&gt;&lt;br&gt;&lt;/span&gt;&lt;/div&gt;&lt;div&gt;-rentPrice:Integer&lt;br&gt;&lt;/div&gt;&lt;div&gt;-type:String&lt;/div&gt;" style="text;strokeColor=none;fillColor=none;align=left;verticalAlign=top;spacingLeft=4;spacingRight=4;overflow=hidden;rotatable=0;points=[[0,0.5],[1,0.5]];portConstraint=eastwest;whiteSpace=wrap;html=1;" vertex="1" parent="eLW_RgLDTBZseyhy0_yq-14">
          <mxGeometry y="26" width="410" height="114" as="geometry" />
        </mxCell>
        <mxCell id="eLW_RgLDTBZseyhy0_yq-16" value="" style="line;strokeWidth=1;fillColor=none;align=left;verticalAlign=middle;spacingTop=-1;spacingLeft=3;spacingRight=3;rotatable=0;labelPosition=right;points=[];portConstraint=eastwest;strokeColor=inherit;" vertex="1" parent="eLW_RgLDTBZseyhy0_yq-14">
          <mxGeometry y="140" width="410" height="8" as="geometry" />
        </mxCell>
        <mxCell id="eLW_RgLDTBZseyhy0_yq-17" value="+ CRUD&lt;div&gt;+calculateAverageRentPrice():&lt;span style=&quot;background-color: initial;&quot;&gt;Map&amp;lt;String,Double&amp;gt;&lt;/span&gt;&lt;/div&gt;&lt;div&gt;+AverageRentForEachType():&lt;span style=&quot;background-color: initial;&quot;&gt;:&lt;/span&gt;&lt;span style=&quot;background-color: initial;&quot;&gt;Map&amp;lt;String,String&amp;gt;&lt;/span&gt;&lt;/div&gt;&lt;div&gt;+changeStatusRequest&lt;span style=&quot;background-color: initial;&quot;&gt;(neger id):void&lt;/span&gt;&lt;/div&gt;&lt;div&gt;&lt;span style=&quot;background-color: initial;&quot;&gt;+findfreeProperties():List&amp;lt;&lt;/span&gt;&lt;span style=&quot;text-align: center; background-color: initial;&quot;&gt;Property&lt;/span&gt;&lt;span style=&quot;font-weight: 700; text-align: center; background-color: initial;&quot;&gt;&amp;gt;&lt;/span&gt;&lt;/div&gt;&lt;div&gt;+getPendingRequests()List&amp;lt;Property&amp;gt;&lt;/div&gt;&lt;div&gt;+getshortLeases():List&amp;lt;&lt;span style=&quot;text-align: center;&quot;&gt;Property&lt;/span&gt;&amp;gt;&lt;/div&gt;&lt;div&gt;+calculateTotalRevenueByProperty(LocalDate startDate,LocalDate endDate):Map&amp;lt;Property,Integer&amp;gt;&lt;/div&gt;" style="text;strokeColor=none;fillColor=none;align=left;verticalAlign=top;spacingLeft=4;spacingRight=4;overflow=hidden;rotatable=0;points=[[0,0.5],[1,0.5]];portConstraint=eastwest;whiteSpace=wrap;html=1;" vertex="1" parent="eLW_RgLDTBZseyhy0_yq-14">
          <mxGeometry y="148" width="410" height="142" as="geometry" />
        </mxCell>
        <mxCell id="eLW_RgLDTBZseyhy0_yq-18" value="Tenant" style="swimlane;fontStyle=1;align=center;verticalAlign=top;childLayout=stackLayout;horizontal=1;startSize=26;horizontalStack=0;resizeParent=1;resizeParentMax=0;resizeLast=0;collapsible=1;marginBottom=0;whiteSpace=wrap;html=1;" vertex="1" parent="1">
          <mxGeometry x="-250" y="340" width="410" height="320" as="geometry" />
        </mxCell>
        <mxCell id="eLW_RgLDTBZseyhy0_yq-19" value="-id:Integer&lt;div&gt;&lt;span style=&quot;background-color: initial;&quot;&gt;-name:String&lt;/span&gt;&lt;br&gt;&lt;/div&gt;&lt;div&gt;-bedroom:Integer&lt;/div&gt;&lt;div&gt;&lt;span style=&quot;background-color: initial;&quot;&gt;-bathroom:Integer&lt;/span&gt;&lt;br&gt;&lt;/div&gt;&lt;div&gt;-age:Integer&lt;span style=&quot;background-color: initial;&quot;&gt;&lt;br&gt;&lt;/span&gt;&lt;/div&gt;&lt;div&gt;-moveInDate:LocalDate&lt;/div&gt;&lt;div&gt;-moveOutDate:LocalDate&lt;/div&gt;&lt;div&gt;&lt;span style=&quot;background-color: initial;&quot;&gt;-email:String&lt;/span&gt;&lt;br&gt;&lt;/div&gt;" style="text;strokeColor=none;fillColor=none;align=left;verticalAlign=top;spacingLeft=4;spacingRight=4;overflow=hidden;rotatable=0;points=[[0,0.5],[1,0.5]];portConstraint=eastwest;whiteSpace=wrap;html=1;" vertex="1" parent="eLW_RgLDTBZseyhy0_yq-18">
          <mxGeometry y="26" width="410" height="134" as="geometry" />
        </mxCell>
        <mxCell id="eLW_RgLDTBZseyhy0_yq-20" value="" style="line;strokeWidth=1;fillColor=none;align=left;verticalAlign=middle;spacingTop=-1;spacingLeft=3;spacingRight=3;rotatable=0;labelPosition=right;points=[];portConstraint=eastwest;strokeColor=inherit;" vertex="1" parent="eLW_RgLDTBZseyhy0_yq-18">
          <mxGeometry y="160" width="410" height="8" as="geometry" />
        </mxCell>
        <mxCell id="eLW_RgLDTBZseyhy0_yq-21" value="+ CRUD&lt;div&gt;+sendMaintenanceRequest&lt;span style=&quot;background-color: initial;&quot;&gt;(Integer tenantId,Integer propertyId,String description):void&lt;/span&gt;&lt;/div&gt;&lt;div&gt;&lt;span style=&quot;background-color: initial;&quot;&gt;+reSendRequest(Integer tenantID,Integer maintenanceID):void&lt;/span&gt;&lt;/div&gt;&lt;div&gt;&lt;span style=&quot;background-color: initial;&quot;&gt;+rentProperty(&lt;/span&gt;&lt;span style=&quot;background-color: initial;&quot;&gt;Integer tenantID,Integer propertyID&lt;/span&gt;&lt;span style=&quot;background-color: initial;&quot;&gt;):void&lt;/span&gt;&lt;/div&gt;&lt;div&gt;+findTenantsExpiredDate()List&amp;lt;Tenant&amp;gt;&lt;/div&gt;&lt;div&gt;+findTenantsWithExpiredLease():Map&amp;lt;Tenant,&lt;span style=&quot;text-align: center;&quot;&gt;Property&lt;/span&gt;&amp;gt;&lt;/div&gt;&lt;div&gt;+findTenantsWithMultipleLease():Map&amp;lt;Tenant,List&amp;lt;Lease&amp;gt;&amp;gt;&lt;/div&gt;&lt;div&gt;&lt;br&gt;&lt;/div&gt;" style="text;strokeColor=none;fillColor=none;align=left;verticalAlign=top;spacingLeft=4;spacingRight=4;overflow=hidden;rotatable=0;points=[[0,0.5],[1,0.5]];portConstraint=eastwest;whiteSpace=wrap;html=1;" vertex="1" parent="eLW_RgLDTBZseyhy0_yq-18">
          <mxGeometry y="168" width="410" height="152" as="geometry" />
        </mxCell>
      </root>
    </mxGraphModel>
  </diagram>
</mxfile>
